<svg width="32" height="32" viewBox="0 0 32 32" fill="none" xmlns="http://www.w3.org/2000/svg">
<path d="M16 0H18V4H20V6H22V8H24V10H26V14H22V12H20V14H18V10H16V12H14V10H12V14H10V12H8V10H10V8H12V6H14V4H16V0Z" fill="#1A1A1A"/>
<path d="M2 4H4V6H2V4Z" fill="#1A1A1A"/>
<path d="M30 4H32V6H30V4Z" fill="#1A1A1A"/>
<path d="M4 6H6V8H4V6Z" fill="#1A1A1A"/>
<path d="M28 6H30V8H28V6Z" fill="#1A1A1A"/>
<path d="M6 8H8V10H6V8Z" fill="#1A1A1A"/>
<path d="M26 8H28V10H26V8Z" fill="#1A1A1A"/>
<path d="M12 10H14V12H16V10H18V14H20V12H22V14H26V16H28V18H30V26H28V28H24V30H8V28H4V26H2V18H4V16H6V14H8V12H10V14H12V10Z" fill="white"/>
<path d="M6 12H8V14H6V12Z" fill="#1A1A1A"/>
<path d="M4 14H6V16H4V14Z" fill="#1A1A1A"/>
<path d="M14 14H16V18H14V14Z" fill="#1A1A1A"/>
<path d="M26 14H28V16H26V14Z" fill="#1A1A1A"/>
<path d="M2 16H4V18H2V16Z" fill="#1A1A1A"/>
<path d="M6 16H8V18H6V16Z" fill="#1A1A1A"/>
<path d="M22 16H24V18H22V16Z" fill="#1A1A1A"/>
<path d="M28 16H30V18H28V16Z" fill="#1A1A1A"/>
<path d="M0 18H2V26H0V18Z" fill="#1A1A1A"/>
<path d="M8 18H12V20H8V18Z" fill="#1A1A1A"/>
<path d="M18 18H22V20H18V18Z" fill="#1A1A1A"/>
<path d="M30 18H32V26H30V18Z" fill="#1A1A1A"/>
<path d="M12 22H18V24H12V22Z" fill="#1A1A1A"/>
<path d="M10 24H12V26H10V24Z" fill="#1A1A1A"/>
<path d="M18 24H20V26H18V24Z" fill="#1A1A1A"/>
<path d="M2 26H4V28H2V26Z" fill="#1A1A1A"/>
<path d="M28 26H30V28H28V26Z" fill="#1A1A1A"/>
<path d="M4 28H8V30H4V28Z" fill="#1A1A1A"/>
<path d="M24 28H28V30H24V28Z" fill="#1A1A1A"/>
<path d="M8 30H24V32H8V30Z" fill="#1A1A1A"/>
</svg>
