<svg width="32" height="32" viewBox="0 0 32 32" fill="none" xmlns="http://www.w3.org/2000/svg">
<path d="M16 0H18V2H20V4H22V6H24V8H26V12H22V10H20V12H18V8H16V10H14V8H12V12H10V10H8V8H10V6H12V4H14V2H16V0Z" fill="#1A1A1A"/>
<path d="M12 8H14V10H16V8H18V12H20V10H22V12H26V14H28V16H30V24H28V26H24V28H8V26H4V24H2V16H4V14H6V12H8V10H10V12H12V8Z" fill="white"/>
<path d="M6 10H8V12H6V10Z" fill="#1A1A1A"/>
<path d="M4 12H6V14H4V12Z" fill="#1A1A1A"/>
<path d="M26 12H28V14H26V12Z" fill="#1A1A1A"/>
<path d="M2 14H4V16H2V14Z" fill="#1A1A1A"/>
<path d="M10 14H12V16H10V14Z" fill="#1A1A1A"/>
<path d="M18 14H20V16H18V14Z" fill="#1A1A1A"/>
<path d="M28 14H30V16H28V14Z" fill="#1A1A1A"/>
<path d="M0 16H2V24H0V16Z" fill="#1A1A1A"/>
<path d="M8 16H10V18H8V16Z" fill="#1A1A1A"/>
<path d="M20 16H22V18H20V16Z" fill="#1A1A1A"/>
<path d="M30 16H32V24H30V16Z" fill="#1A1A1A"/>
<path d="M6 18H8V20H6V18Z" fill="#1A1A1A"/>
<path d="M14 18H16V20H14V18Z" fill="#1A1A1A"/>
<path d="M22 18H24V20H22V18Z" fill="#1A1A1A"/>
<path d="M12 20H14V22H12V20Z" fill="#1A1A1A"/>
<path d="M16 20H18V22H16V20Z" fill="#1A1A1A"/>
<path d="M10 22H12V24H10V22Z" fill="#1A1A1A"/>
<path d="M18 22H20V24H18V22Z" fill="#1A1A1A"/>
<path d="M2 24H4V26H2V24Z" fill="#1A1A1A"/>
<path d="M28 24H30V26H28V24Z" fill="#1A1A1A"/>
<path d="M4 26H8V28H4V26Z" fill="#1A1A1A"/>
<path d="M24 26H28V28H24V26Z" fill="#1A1A1A"/>
<path d="M8 28H24V30H8V28Z" fill="#1A1A1A"/>
</svg>
