<svg width="32" height="32" viewBox="0 0 32 32" fill="none" xmlns="http://www.w3.org/2000/svg">
<path d="M0 0H32V32H0V0Z" fill="white"/>
<path d="M8 4H14V6H8V4Z" fill="#1A1A1A"/>
<path d="M26 4H28V6H26V4Z" fill="#1A1A1A"/>
<path d="M6 6H8V8H6V6Z" fill="#1A1A1A"/>
<path d="M8 6H14V8H8V6Z" fill="white"/>
<path d="M14 6H16V8H14V6Z" fill="#1A1A1A"/>
<path d="M24 6H26V8H28V6H30V10H28V12H24V10H22V8H24V6Z" fill="#1A1A1A"/>
<path d="M26 6H28V8H26V6Z" fill="white"/>
<path d="M4 8H6V10H4V8Z" fill="#1A1A1A"/>
<path d="M6 8H8V10H6V8Z" fill="white"/>
<path d="M8 8H14V12H10V10H8V8Z" fill="#1A1A1A"/>
<path d="M2 10H4V12H2V10Z" fill="#1A1A1A"/>
<path d="M6 10H8V12H6V10Z" fill="#1A1A1A"/>
<path d="M20 10H22V12H20V10Z" fill="#1A1A1A"/>
<path d="M22 10H24V12H22V10Z" fill="white"/>
<path d="M22 12H24V14H22V12Z" fill="#1A1A1A"/>
<path d="M24 14H26V16H24V14Z" fill="#1A1A1A"/>
<path d="M26 16H28V18H26V16Z" fill="#1A1A1A"/>
<path d="M28 18H30V20H28V18Z" fill="#1A1A1A"/>
<path d="M26 20H28V22H26V20Z" fill="#1A1A1A"/>
<path d="M22 22H26V24H22V22Z" fill="#1A1A1A"/>
<path d="M10 24H12V26H10V24Z" fill="#1A1A1A"/>
<path d="M18 24H20V26H22V28H20V30H16V28H12V26H18V24Z" fill="#1A1A1A"/>
</svg>
