<svg width="32" height="32" viewBox="0 0 32 32" fill="none" xmlns="http://www.w3.org/2000/svg">
<path d="M0 0H12V2H8V4H6V6H4V10H2V14H0V0Z" fill="white"/>
<path d="M12 0H26V2H30V4H32V8H30V10H28V12H26V16H24V18H20V16H18V14H24V12H18V10H22V8H16V10H14V12H12V22H10V20H8V26H12V32H10V28H6V26H4V24H2V20H0V14H2V10H4V6H6V4H8V2H12V0Z" fill="#1A1A1A"/>
<path d="M26 0H32V4H30V2H26V0Z" fill="white"/>
<path d="M16 8H22V10H18V12H24V14H18V16H20V18H24V16H26V18H28V20H26V22H24V24H26V28H20V30H22V32H12V26H8V20H10V22H12V12H14V10H16V8Z" fill="white"/>
<path d="M30 8H32V32H24V30H26V28H28V20H30V18H28V16H26V12H28V10H30V8Z" fill="white"/>
<path d="M26 16H28V18H26V16Z" fill="#1A1A1A"/>
<path d="M28 18H30V20H28V18Z" fill="#1A1A1A"/>
<path d="M0 20H2V24H4V26H6V28H10V32H0V20Z" fill="white"/>
<path d="M26 20H28V28H26V24H24V22H26V20Z" fill="#1A1A1A"/>
<path d="M20 28H26V30H24V32H22V30H20V28Z" fill="#1A1A1A"/>
</svg>
