<svg width="32" height="32" viewBox="0 0 32 32" fill="none" xmlns="http://www.w3.org/2000/svg">
<path d="M0 0H16V2H12V4H10V6H4V4H0V0Z" fill="white"/>
<path d="M16 0H20V2H22V4H18V6H14V8H18V10H22V12H24V10H26V8H28V14H30V16H26V18H28V20H24V18H22V14H16V12H10V14H14V16H8V10H6V8H2V6H0V4H4V6H10V4H12V2H16V0Z" fill="#1A1A1A"/>
<path d="M20 0H32V22H30V20H28V18H26V16H30V14H28V8H26V6H24V4H22V2H20V0Z" fill="white"/>
<path d="M18 4H22V6H24V8H26V10H24V12H22V10H18V8H14V6H18V4Z" fill="white"/>
<path d="M22 4H24V6H22V4Z" fill="#1A1A1A"/>
<path d="M0 6H2V8H6V10H8V16H6V18H4V20H8V26H14V28H12V30H10V32H0V6Z" fill="white"/>
<path d="M24 6H26V8H24V6Z" fill="#1A1A1A"/>
<path d="M10 12H16V14H22V18H20V20H18V22H16V24H10V22H12V20H8V16H14V14H10V12Z" fill="white"/>
<path d="M6 16H8V20H4V18H6V16Z" fill="#1A1A1A"/>
<path d="M20 18H22V20H20V18Z" fill="#1A1A1A"/>
<path d="M22 18H24V20H22V18Z" fill="white"/>
<path d="M8 20H12V22H10V24H16V26H20V28H18V30H16V32H10V30H12V28H14V26H8V20Z" fill="#1A1A1A"/>
<path d="M18 20H20V22H18V20Z" fill="#1A1A1A"/>
<path d="M20 20H22V22H20V20Z" fill="white"/>
<path d="M22 20H24V22H22V20Z" fill="#1A1A1A"/>
<path d="M24 20H28V22H30V24H32V32H16V30H18V28H20V26H22V22H24V20Z" fill="white"/>
<path d="M28 20H30V22H28V20Z" fill="#1A1A1A"/>
<path d="M16 22H18V24H16V22Z" fill="#1A1A1A"/>
<path d="M18 22H20V26H16V24H18V22Z" fill="white"/>
<path d="M20 22H22V26H20V22Z" fill="#1A1A1A"/>
<path d="M30 22H32V24H30V22Z" fill="#1A1A1A"/>
</svg>
