<svg width="32" height="32" viewBox="0 0 32 32" fill="none" xmlns="http://www.w3.org/2000/svg">
<path d="M0 0H10V2H12V4H16V6H18V8H20V10H22V8H20V6H18V4H16V2H12V0H24V2H28V4H30V8H32V32H30V30H26V26H24V20H26V14H24V12H22V14H20V12H16V10H12V8H8V6H6V14H2V12H4V10H2V8H0V0Z" fill="#1A1A1A"/>
<path d="M10 0H12V2H10V0Z" fill="white"/>
<path d="M24 0H32V8H30V4H28V2H24V0Z" fill="white"/>
<path d="M12 2H16V4H12V2Z" fill="white"/>
<path d="M16 4H18V6H16V4Z" fill="white"/>
<path d="M6 6H8V8H12V10H16V12H20V14H22V16H24V14H26V20H24V26H26V30H30V32H16V30H12V24H8V22H4V20H6V18H8V14H6V6Z" fill="white"/>
<path d="M18 6H20V8H18V6Z" fill="white"/>
<path d="M0 8H2V10H4V12H2V14H6V18H4V20H2V22H4V24H8V28H10V30H12V32H0V8Z" fill="white"/>
<path d="M20 8H22V10H20V8Z" fill="white"/>
<path d="M10 12H14V14H16V16H14V18H12V14H10V12Z" fill="#1A1A1A"/>
<path d="M22 12H24V14H22V12Z" fill="white"/>
<path d="M6 14H8V18H6V14Z" fill="#1A1A1A"/>
<path d="M22 14H24V16H22V14Z" fill="#1A1A1A"/>
<path d="M4 18H6V20H4V18Z" fill="#1A1A1A"/>
<path d="M2 20H4V22H2V20Z" fill="#1A1A1A"/>
<path d="M4 22H8V24H4V22Z" fill="#1A1A1A"/>
<path d="M8 24H12V30H10V28H8V24Z" fill="#1A1A1A"/>
<path d="M16 28H20V30H16V28Z" fill="#1A1A1A"/>
<path d="M12 30H16V32H12V30Z" fill="#1A1A1A"/>
</svg>
