<svg width="250" height="250" viewBox="0 0 250 250" fill="none" xmlns="http://www.w3.org/2000/svg">
<path d="M182.292 144.531C182.292 176.892 156.641 203.125 125 203.125C93.3587 203.125 67.7084 176.892 67.7084 144.531C67.7084 112.171 93.3587 46.875 125 46.875C156.641 46.875 182.292 112.171 182.292 144.531Z" fill="#F2EB76"/>
<path fill-rule="evenodd" clip-rule="evenodd" d="M187.5 144.531C187.5 179.657 159.628 208.333 125 208.333C90.3725 208.333 62.5 179.657 62.5 144.531C62.5 127.33 69.2094 102.105 79.847 81.2054C85.1875 70.7132 91.6715 61.001 99.0792 53.8387C106.458 46.7045 115.224 41.6667 125 41.6667C134.776 41.6667 143.542 46.7045 150.921 53.8387C158.329 61.001 164.812 70.7132 170.153 81.2054C180.791 102.105 187.5 127.33 187.5 144.531ZM125 203.125C156.641 203.125 182.292 176.892 182.292 144.531C182.292 112.171 156.641 46.875 125 46.875C93.3587 46.875 67.7083 112.171 67.7083 144.531C67.7083 176.892 93.3587 203.125 125 203.125Z" fill="#538642"/>
<path fill-rule="evenodd" clip-rule="evenodd" d="M125 203.125C156.641 203.125 182.292 176.892 182.292 144.531C182.292 112.171 156.641 46.875 125 46.875C93.3587 46.875 67.7084 112.171 67.7084 144.531C67.7084 176.892 93.3587 203.125 125 203.125ZM125 197.917C153.765 197.917 177.083 173.869 177.083 144.206C177.083 114.542 153.765 54.6875 125 54.6875C96.2352 54.6875 72.9167 114.542 72.9167 144.206C72.9167 173.869 96.2352 197.917 125 197.917Z" fill="#D9DE2E"/>
<path d="M165.267 175.341C163.254 177.543 159.836 177.697 157.634 175.684C155.431 173.67 155.278 170.253 157.291 168.05C159.304 165.848 162.722 165.695 164.924 167.708C167.127 169.721 167.28 173.138 165.267 175.341Z" fill="#C4CB29"/>
<path d="M144.434 193.57C142.42 195.773 139.003 195.926 136.8 193.913C134.598 191.9 134.444 188.482 136.458 186.28C138.471 184.077 141.888 183.924 144.091 185.937C146.293 187.95 146.447 191.368 144.434 193.57Z" fill="#C4CB29"/>
<path d="M84.5378 164.924C82.5246 167.127 79.1071 167.28 76.9046 165.267C74.7021 163.254 74.5487 159.836 76.5619 157.634C78.5751 155.431 81.9926 155.278 84.1951 157.291C86.3976 159.304 86.551 162.722 84.5378 164.924Z" fill="#C4CB29"/>
<path d="M156.588 187.597C155.176 189.142 152.779 189.25 151.234 187.838C149.69 186.426 149.582 184.029 150.994 182.484C152.406 180.94 154.803 180.832 156.347 182.244C157.892 183.656 158 186.053 156.588 187.597Z" fill="#C4CB29"/>
<path d="M130.546 198.014C129.134 199.559 126.737 199.666 125.193 198.254C123.648 196.842 123.54 194.446 124.952 192.901C126.364 191.356 128.761 191.249 130.306 192.661C131.85 194.073 131.958 196.469 130.546 198.014Z" fill="#C4CB29"/>
<path d="M88.8794 174.577C87.4675 176.121 85.0707 176.229 83.526 174.817C81.9813 173.405 81.8737 171.008 83.2857 169.464C84.6976 167.919 87.0944 167.811 88.639 169.223C90.1837 170.635 90.2913 173.032 88.8794 174.577Z" fill="#C4CB29"/>
<path d="M83.671 148.535C82.2591 150.08 79.8623 150.187 78.3176 148.775C76.773 147.363 76.6654 144.967 78.0773 143.422C79.4892 141.877 81.886 141.77 83.4307 143.182C84.9753 144.593 85.0829 146.99 83.671 148.535Z" fill="#C4CB29"/>
<path d="M174.817 164.16C173.405 165.705 171.008 165.812 169.464 164.4C167.919 162.988 167.811 160.592 169.223 159.047C170.635 157.502 173.032 157.395 174.577 158.807C176.121 160.218 176.229 162.615 174.817 164.16Z" fill="#C4CB29"/>
<path d="M161.458 145.833C161.458 165.969 145.135 182.292 125 182.292C104.865 182.292 88.5416 165.969 88.5416 145.833C88.5416 125.698 104.865 109.375 125 109.375C145.135 109.375 161.458 125.698 161.458 145.833Z" fill="#BAC73A"/>
<path d="M148.438 145.833C148.438 158.778 137.944 169.271 125 169.271C112.056 169.271 101.562 158.778 101.562 145.833C101.562 132.889 112.056 122.396 125 122.396C137.944 122.396 148.438 132.889 148.438 145.833Z" fill="#B6472C"/>
<path fill-rule="evenodd" clip-rule="evenodd" d="M153.646 145.833C153.646 161.654 140.821 174.479 125 174.479C109.179 174.479 96.3541 161.654 96.3541 145.833C96.3541 130.013 109.179 117.188 125 117.188C140.821 117.188 153.646 130.013 153.646 145.833ZM125 169.271C137.944 169.271 148.437 158.778 148.437 145.833C148.437 132.889 137.944 122.396 125 122.396C112.056 122.396 101.562 132.889 101.562 145.833C101.562 158.778 112.056 169.271 125 169.271Z" fill="#662513"/>
<path fill-rule="evenodd" clip-rule="evenodd" d="M122.396 161.458C135.34 161.458 145.833 150.965 145.833 138.021C145.833 136.868 145.75 135.734 145.589 134.626C147.405 137.955 148.438 141.774 148.438 145.833C148.438 158.777 137.944 169.271 125 169.271C113.209 169.271 103.451 160.564 101.807 149.228C105.781 156.515 113.511 161.458 122.396 161.458Z" fill="#A43E25"/>
<path d="M119.792 138.021C119.792 140.897 117.46 143.229 114.583 143.229C111.707 143.229 109.375 140.897 109.375 138.021C109.375 135.144 111.707 132.812 114.583 132.812C117.46 132.812 119.792 135.144 119.792 138.021Z" fill="#F5A05F"/>
<path d="M122.571 63.0756C126.67 67.4942 124.62 76.0612 117.992 82.2104C111.364 88.3595 102.668 89.7624 98.5686 85.3437C94.4691 80.925 96.5189 72.3581 103.147 66.2089C109.775 60.0597 118.471 58.6569 122.571 63.0756Z" fill="#FFFAA3"/>
<path fill-rule="evenodd" clip-rule="evenodd" d="M110.538 78.807C112.987 77.4935 113.983 74.4684 112.759 71.9451C111.503 69.3572 108.387 68.2772 105.799 69.5329C105.031 69.9055 104.172 70.3637 103.419 70.9766C102.454 71.7621 101.845 72.6454 101.444 73.5613C101.322 73.8399 101.202 74.1736 101.197 74.1869L101.197 74.1873C101.194 74.1951 101.191 74.2018 101.189 74.2076C101.163 74.2485 101.104 74.332 100.996 74.464C99.1724 76.6887 99.4975 79.9703 101.722 81.7938C103.947 83.6174 107.228 83.2922 109.052 81.0676C109.709 80.2661 110.182 79.5298 110.538 78.807ZM101.207 74.1777C101.208 74.1776 101.206 74.1814 101.201 74.1893C101.205 74.1817 101.207 74.1777 101.207 74.1777Z" fill="white"/>
</svg>
