<svg width="10" height="13" viewBox="0 0 10 13" fill="none" xmlns="http://www.w3.org/2000/svg">
<path d="M4.99612 2.91333C4.31511 2.91333 3.662 3.23797 3.18045 3.81582C2.69891 4.39368 2.42838 5.17742 2.42838 5.99463C2.42838 6.81184 2.69891 7.59558 3.18045 8.17343C3.662 8.75129 4.31511 9.07592 4.99612 9.07592C5.67713 9.07592 6.33025 8.75129 6.81179 8.17343C7.29334 7.59558 7.56387 6.81184 7.56387 5.99463C7.56387 5.17742 7.29334 4.39368 6.81179 3.81582C6.33025 3.23797 5.67713 2.91333 4.99612 2.91333V2.91333ZM4.99612 7.99574C4.5537 7.99574 4.1294 7.78484 3.81656 7.40943C3.50373 7.03402 3.32798 6.52487 3.32798 5.99396C3.32798 5.46306 3.50373 4.9539 3.81656 4.57849C4.1294 4.20309 4.5537 3.99218 4.99612 3.99218C5.43854 3.99218 5.86284 4.20309 6.17568 4.57849C6.48852 4.9539 6.66427 5.46306 6.66427 5.99396C6.66427 6.52487 6.48852 7.03402 6.17568 7.40943C5.86284 7.78484 5.43854 7.99574 4.99612 7.99574V7.99574Z" fill="#474747"/>
<path d="M7.66555 3.51848C7.99616 3.51848 8.26417 3.19687 8.26417 2.80013C8.26417 2.4034 7.99616 2.08179 7.66555 2.08179C7.33494 2.08179 7.06693 2.4034 7.06693 2.80013C7.06693 3.19687 7.33494 3.51848 7.66555 3.51848Z" fill="#474747"/>
<path d="M9.73512 2.06975C9.60656 1.67138 9.41011 1.30961 9.15834 1.00759C8.90656 0.705576 8.60501 0.469972 8.27299 0.31586C7.88446 0.140842 7.474 0.0462069 7.05908 0.0359839C6.52432 0.00799638 6.35495 0 4.99889 0C3.64283 0 3.46901 -6.70254e-08 2.93869 0.0359839C2.52409 0.0456842 2.11393 0.140339 1.7259 0.31586C1.39379 0.469792 1.09216 0.705333 0.840368 1.00737C0.588574 1.30941 0.392175 1.67127 0.263772 2.06975C0.117895 2.53595 0.0392129 3.02855 0.0310973 3.52643C0.00721901 4.16748 0 4.37072 0 5.99867C0 7.62594 -4.13737e-09 7.83319 0.0310973 8.4709C0.0394269 8.96935 0.117725 9.46113 0.263772 9.92825C0.392535 10.3266 0.589125 10.6883 0.84098 10.9903C1.09283 11.2923 1.39442 11.5279 1.72645 11.6821C2.11375 11.8642 2.52408 11.9656 2.9398 11.982C3.47457 12.01 3.64394 12.0187 5 12.0187C6.35606 12.0187 6.52988 12.0187 7.0602 11.982C7.47507 11.9719 7.88551 11.8775 8.2741 11.7028C8.60604 11.5483 8.9075 11.3125 9.15925 11.0104C9.41099 10.7083 9.6075 10.3466 9.73623 9.94825C9.88227 9.48179 9.96057 8.99 9.9689 8.49156C9.99278 7.85051 10 7.64727 10 6.01932C10 4.39138 10 4.18481 9.9689 3.54709C9.96244 3.04216 9.88335 2.54237 9.73512 2.06975V2.06975ZM9.05875 8.42159C9.05517 8.80562 8.99676 9.18608 8.88605 9.54642C8.80266 9.80555 8.67499 10.0409 8.51126 10.2372C8.34752 10.4336 8.15135 10.5867 7.93536 10.6866C7.6384 10.8188 7.32472 10.8889 7.008 10.8938C6.48045 10.9231 6.33163 10.9305 4.9789 10.9305C3.62506 10.9305 3.48678 10.9305 2.94924 10.8938C2.63268 10.8892 2.31915 10.8191 2.02243 10.6866C1.80569 10.5873 1.60873 10.4345 1.4443 10.2381C1.27986 10.0417 1.15162 9.80605 1.06786 9.54642C0.958711 9.18995 0.900328 8.81398 0.895158 8.43425C0.871279 7.8012 0.865726 7.62261 0.865726 5.99933C0.865726 4.37539 0.865726 4.20946 0.895158 3.56375C0.898747 3.17993 0.957161 2.7997 1.06786 2.43958C1.23723 1.91382 1.5843 1.5 2.02243 1.29876C2.3193 1.16691 2.63273 1.09682 2.94924 1.09151C3.47734 1.06286 3.62561 1.05486 4.9789 1.05486C6.33219 1.05486 6.47101 1.05486 7.008 1.09151C7.32475 1.09609 7.63847 1.1662 7.93536 1.29876C8.15134 1.39889 8.34748 1.55211 8.5112 1.74858C8.67492 1.94504 8.8026 2.18041 8.88605 2.43958C8.9952 2.79606 9.05358 3.17203 9.05875 3.55175C9.08263 4.18547 9.08874 4.36339 9.08874 5.98734C9.08874 7.61062 9.08874 7.78521 9.06486 8.42226H9.05875V8.42159Z" fill="#474747"/>
</svg>
