<svg width="412" height="321" viewBox="0 0 412 321" fill="none" xmlns="http://www.w3.org/2000/svg">
<g clip-path="url(#clip0_2_2)">
<path fill-rule="evenodd" clip-rule="evenodd" d="M89 8.5C90.933 8.5 92.5 6.933 92.5 5C92.5 3.067 90.933 1.5 89 1.5C87.067 1.5 85.5 3.067 85.5 5C85.5 6.933 87.067 8.5 89 8.5ZM89 10C91.7614 10 94 7.76142 94 5C94 2.23858 91.7614 0 89 0C86.2386 0 84 2.23858 84 5C84 7.76142 86.2386 10 89 10Z" fill="black"/>
<path fill-rule="evenodd" clip-rule="evenodd" d="M86 13.75C83.6528 13.75 81.75 15.6528 81.75 18V19C81.75 19.4142 81.4142 19.75 81 19.75C80.5858 19.75 80.25 19.4142 80.25 19V18C80.25 14.8244 82.8244 12.25 86 12.25H92C95.1756 12.25 97.75 14.8244 97.75 18V19C97.75 19.4142 97.4142 19.75 97 19.75C96.5858 19.75 96.25 19.4142 96.25 19V18C96.25 15.6528 94.3472 13.75 92 13.75H86Z" fill="black"/>
<path fill-rule="evenodd" clip-rule="evenodd" d="M61.6987 5L66.0973 0.784674C67.161 -0.234702 68.839 -0.234703 69.9027 0.784674L74.3013 5H76.847C77.4555 5 77.923 5.53899 77.8369 6.14142L76.368 16.4243C76.1568 17.9022 74.8911 19 73.3981 19H62.6019C61.1089 19 59.8432 17.9022 59.632 16.4243L58.1631 6.14142C58.077 5.53899 58.5445 5 59.153 5H61.6987ZM67.1351 1.86766C67.6186 1.4043 68.3814 1.4043 68.8649 1.86766L72.1334 5H63.8666L67.1351 1.86766ZM59.7295 6.5L61.117 16.2121C61.2225 16.9511 61.8554 17.5 62.6019 17.5H73.3981C74.1446 17.5 74.7775 16.9511 74.883 16.2121L76.2705 6.5H59.7295Z" fill="black"/>
<path fill-rule="evenodd" clip-rule="evenodd" d="M64 9.25C64.4142 9.25 64.75 9.58579 64.75 10V14C64.75 14.4142 64.4142 14.75 64 14.75C63.5858 14.75 63.25 14.4142 63.25 14V10C63.25 9.58579 63.5858 9.25 64 9.25Z" fill="black"/>
<path fill-rule="evenodd" clip-rule="evenodd" d="M68 9.25C68.4142 9.25 68.75 9.58579 68.75 10V14C68.75 14.4142 68.4142 14.75 68 14.75C67.5858 14.75 67.25 14.4142 67.25 14V10C67.25 9.58579 67.5858 9.25 68 9.25Z" fill="black"/>
<path fill-rule="evenodd" clip-rule="evenodd" d="M72 9.25C72.4142 9.25 72.75 9.58579 72.75 10V14C72.75 14.4142 72.4142 14.75 72 14.75C71.5858 14.75 71.25 14.4142 71.25 14V10C71.25 9.58579 71.5858 9.25 72 9.25Z" fill="black"/>
<path fill-rule="evenodd" clip-rule="evenodd" d="M52.8723 14.8116C54.1996 13.2436 55 11.2153 55 9C55 4.02944 50.9706 0 46 0C41.0294 0 37 4.02944 37 9C37 13.9706 41.0294 18 46 18C48.2153 18 50.2436 17.1996 51.8116 15.8723L54.4697 18.5303C54.7626 18.8232 55.2374 18.8232 55.5303 18.5303C55.8232 18.2374 55.8232 17.7626 55.5303 17.4697L52.8723 14.8116ZM53.5 9C53.5 13.1421 50.1421 16.5 46 16.5C41.8579 16.5 38.5 13.1421 38.5 9C38.5 4.85786 41.8579 1.5 46 1.5C50.1421 1.5 53.5 4.85786 53.5 9Z" fill="black"/>
<rect x="107.5" width="34" height="19" fill="#E9E9E9"/>
<path d="M100 9.5H124M124 9.5L117 2.5M124 9.5L117 16.5" stroke="#3D3D3F" stroke-width="1.5"/>
<circle opacity="0.2" cx="157" cy="13" r="13" fill="white"/>
<path fill-rule="evenodd" clip-rule="evenodd" d="M154.324 10.0833L156.89 7.62438C157.511 7.02975 158.49 7.02975 159.11 7.62438L161.676 10.0833H163.161C163.516 10.0833 163.789 10.3977 163.738 10.7492L162.882 16.7475C162.758 17.6096 162.02 18.25 161.149 18.25H154.851C153.98 18.25 153.242 17.6096 153.119 16.7475L152.262 10.7492C152.212 10.3977 152.485 10.0833 152.84 10.0833H154.324ZM157.496 8.25612C157.778 7.98583 158.223 7.98583 158.505 8.25612L160.411 10.0833H155.589L157.496 8.25612ZM153.176 10.9583L153.985 16.6237C154.047 17.0548 154.416 17.375 154.851 17.375H161.149C161.585 17.375 161.954 17.0548 162.015 16.6237L162.825 10.9583H153.176Z" fill="white"/>
<path fill-rule="evenodd" clip-rule="evenodd" d="M155.667 12.5625C155.909 12.5625 156.104 12.7584 156.104 13V15.3333C156.104 15.575 155.909 15.7708 155.667 15.7708C155.425 15.7708 155.229 15.575 155.229 15.3333V13C155.229 12.7584 155.425 12.5625 155.667 12.5625Z" fill="white"/>
<path fill-rule="evenodd" clip-rule="evenodd" d="M158 12.5625C158.242 12.5625 158.438 12.7584 158.438 13V15.3333C158.438 15.575 158.242 15.7708 158 15.7708C157.759 15.7708 157.563 15.575 157.563 15.3333V13C157.563 12.7584 157.759 12.5625 158 12.5625Z" fill="white"/>
<path fill-rule="evenodd" clip-rule="evenodd" d="M160.334 12.5625C160.575 12.5625 160.771 12.7584 160.771 13V15.3333C160.771 15.575 160.575 15.7708 160.334 15.7708C160.092 15.7708 159.896 15.575 159.896 15.3333V13C159.896 12.7584 160.092 12.5625 160.334 12.5625Z" fill="white"/>
<path d="M177.258 0L178.882 3.29127L182.515 3.82229L179.886 6.38275L180.507 10L177.258 8.29127L174.008 10L174.629 6.38275L172 3.82229L175.633 3.29127L177.258 0Z" fill="#3D3D3F"/>
</g>
<defs>
<clipPath id="clip0_2_2">
<rect width="412" height="321" fill="black"/>
</clipPath>
</defs>
</svg>
