<svg width="11" height="9" viewBox="0 0 11 9" fill="none" xmlns="http://www.w3.org/2000/svg">
<path d="M10.7762 1.415C10.7136 1.14357 10.5913 0.896024 10.4214 0.697014C10.2515 0.498004 10.0399 0.354468 9.80781 0.280692C8.94712 0.00450089 5.50381 4.87928e-06 5.50381 4.87928e-06C5.50381 4.87928e-06 2.06104 -0.00449139 1.1998 0.259496C0.967825 0.336667 0.756717 0.482233 0.586747 0.68222C0.416776 0.882207 0.29365 1.1299 0.229189 1.40152C0.00219935 2.40737 8.0526e-07 4.49358 8.0526e-07 4.49358C8.0526e-07 4.49358 -0.00219763 6.59006 0.223143 7.58564C0.349554 8.13609 0.720541 8.57094 1.19211 8.71931C2.06159 8.9955 5.49556 8.99999 5.49556 8.99999C5.49556 8.99999 8.93888 9.00449 9.79957 8.74115C10.0318 8.6675 10.2435 8.52429 10.4138 8.32569C10.5842 8.12709 10.7072 7.87996 10.7707 7.60876C10.9983 6.60355 10.9999 4.51798 10.9999 4.51798C10.9999 4.51798 11.0109 2.42086 10.7762 1.415V1.415ZM4.40239 6.42628L4.40514 2.57244L7.26696 4.50257L4.40239 6.42628V6.42628Z" fill="#474747"/>
</svg>
